P2
4 3
255
255 0 255 0
0 255 0 255
255 0 255 0
